<?xml version="1.0" standalone="no"?>
<!DOCTYPE svg PUBLIC "-//W3C//DTD SVG 20010904//EN"
 "http://www.w3.org/TR/2001/REC-SVG-20010904/DTD/svg10.dtd">
<svg version="1.0" xmlns="http://www.w3.org/2000/svg"
 width="50.000000pt" height="15.000000pt" viewBox="0 0 1373.000000 1117.000000"
 preserveAspectRatio="xMidYMid meet">

<g transform="translate(0.000000,1117.000000) scale(0.100000,-0.100000)"
fill="#000000" stroke="none">
<path d="M4770 11159 c-285 -33 -577 -125 -823 -260 -126 -70 -131 -75 -117
-129 14 -54 90 -136 175 -189 82 -52 207 -114 395 -196 183 -80 329 -152 385
-191 22 -15 78 -53 125 -85 299 -203 570 -485 813 -847 114 -169 239 -382 452
-767 406 -735 589 -1010 864 -1297 91 -95 150 -145 281 -238 589 -419 1018
-640 1350 -695 564 -95 754 351 574 1345 -87 484 -274 922 -599 1410 -765
1147 -2060 1995 -3260 2135 -141 16 -486 19 -615 4z"/>
<path d="M3590 10319 c-67 -12 -146 -47 -213 -96 -44 -33 -57 -51 -113 -167
-244 -503 -278 -1069 -102 -1676 104 -355 306 -759 558 -1115 785 -1107 2129
-1974 3215 -2075 66 -6 219 -14 340 -17 410 -11 690 34 920 147 184 90 312
213 394 378 l36 73 -54 47 c-163 142 -346 255 -681 422 -581 290 -737 395
-1010 677 -299 308 -494 581 -935 1313 -502 831 -670 1067 -994 1391 -242 241
-423 375 -696 514 -224 114 -470 196 -580 193 -16 0 -55 -4 -85 -9z"/>
<path d="M11410 5988 c-1025 -78 -2281 -832 -3106 -1865 -440 -550 -718 -1142
-805 -1714 -29 -187 -31 -498 -5 -664 33 -209 89 -403 165 -571 84 -187 117
-225 247 -286 67 -32 72 -33 199 -32 127 0 133 1 250 43 148 53 388 168 515
246 178 111 329 233 506 409 320 321 491 561 989 1386 464 769 685 1073 1011
1390 236 229 374 320 842 554 301 151 404 207 537 293 125 81 285 210 285 229
0 21 -46 109 -90 174 -43 62 -143 161 -210 207 -150 102 -368 172 -635 202
-105 13 -529 12 -695 -1z"/>
<path d="M1925 5781 c-425 -57 -728 -136 -923 -241 -311 -168 -394 -395 -253
-695 141 -300 477 -642 1066 -1084 153 -114 204 -146 340 -212 368 -178 676
-266 1471 -419 422 -82 624 -126 824 -180 427 -116 766 -268 1032 -462 268
-195 283 -209 570 -529 224 -250 350 -350 462 -365 66 -9 81 4 100 88 61 279
68 559 20 848 -82 497 -340 1017 -743 1500 -296 354 -674 686 -1096 962 -635
416 -1332 682 -2040 779 -222 30 -639 35 -830 10z"/>
<path d="M13040 4900 c-264 -57 -649 -246 -1060 -522 -298 -200 -363 -250
-500 -387 -279 -280 -472 -567 -867 -1284 -348 -634 -518 -899 -750 -1168
-161 -187 -328 -336 -530 -474 -183 -126 -235 -154 -507 -275 -392 -175 -527
-261 -566 -364 -25 -66 -18 -78 88 -138 458 -262 1013 -347 1621 -247 1448
239 2953 1478 3519 2900 106 265 170 519 219 864 26 185 26 577 0 687 -56 237
-163 367 -342 414 -70 19 -224 16 -325 -6z"/>
<path d="M276 4588 c-48 -36 -143 -164 -186 -251 -70 -143 -84 -213 -84 -432
0 -252 33 -429 139 -734 175 -503 364 -828 701 -1211 439 -498 999 -922 1634
-1239 522 -260 1005 -412 1515 -478 194 -24 601 -24 770 0 467 69 820 217
1150 484 225 182 269 252 269 433 0 159 -37 241 -201 445 -334 415 -789 714
-1409 925 -266 91 -525 160 -1039 279 -872 201 -1204 305 -1610 506 -330 163
-434 245 -890 695 -187 184 -376 364 -420 400 -88 70 -283 200 -299 200 -6 0
-24 -10 -40 -22z"/>
</g>
</svg>
