<?xml version="1.0" standalone="no"?>
<!DOCTYPE svg PUBLIC "-//W3C//DTD SVG 20010904//EN"
 "http://www.w3.org/TR/2001/REC-SVG-20010904/DTD/svg10.dtd">
<svg version="1.0" xmlns="http://www.w3.org/2000/svg"
  width="180.000000pt"  viewBox="0 0 1534.000000 537.000000"
 preserveAspectRatio="xMidYMid meet">

<g transform="translate(0.000000,537.000000) scale(0.100000,-0.100000)"
fill="#000000" stroke="none">
<path d="M7212 4411 c-22 -18 -22 -24 -22 -320 0 -194 4 -301 10 -301 6 0 10
-67 10 -181 0 -199 3 -209 60 -209 57 0 60 10 60 209 0 114 4 181 10 181 6 0
10 107 10 300 0 193 -4 300 -10 300 -5 0 -10 6 -10 14 0 31 -85 36 -118 7z"/>
<path d="M2680 4226 c-230 -80 -334 -123 -350 -146 -3 -4 -20 -15 -39 -25 -42
-21 -45 -24 -131 -107 -39 -37 -70 -72 -70 -78 0 -5 -4 -10 -10 -10 -5 0 -10
-7 -10 -15 0 -8 -4 -15 -10 -15 -5 0 -10 -9 -10 -20 0 -11 -4 -20 -10 -20 -5
0 -10 -9 -10 -20 0 -11 -4 -20 -10 -20 -5 0 -10 -11 -10 -24 0 -13 -7 -27 -16
-30 -22 -9 -24 -8 -24 9 0 8 -4 15 -10 15 -5 0 -10 7 -10 15 0 8 -4 15 -10 15
-5 0 -10 5 -10 10 0 6 -36 46 -80 88 -92 90 -98 95 -131 112 -13 7 -26 16 -29
20 -7 11 -161 87 -212 105 -160 58 -208 67 -234 41 -17 -17 -21 -206 -4 -206
6 0 10 -20 10 -45 0 -25 5 -45 10 -45 6 0 10 -13 10 -30 0 -16 5 -30 10 -30 6
0 10 -11 10 -25 0 -14 5 -25 10 -25 6 0 10 -9 10 -20 0 -11 5 -20 10 -20 6 0
10 -9 10 -20 0 -11 5 -20 10 -20 6 0 10 -9 10 -20 0 -11 5 -20 10 -20 6 0 10
-7 10 -15 0 -8 5 -15 10 -15 6 0 10 -6 10 -13 0 -7 9 -19 20 -27 11 -8 20 -18
20 -23 0 -4 36 -43 80 -85 96 -94 103 -99 135 -114 14 -6 25 -14 25 -18 0 -4
19 -15 43 -24 23 -10 56 -24 73 -31 17 -7 57 -16 90 -20 101 -11 94 -2 94
-126 0 -66 4 -109 10 -109 6 0 10 -47 10 -120 0 -73 4 -120 10 -120 6 0 10
-33 10 -80 0 -47 -4 -80 -10 -80 -5 0 -10 7 -10 15 0 8 -4 15 -10 15 -5 0 -10
8 -10 18 0 10 -9 24 -20 32 -21 15 -29 80 -10 80 6 0 10 43 10 110 0 67 -4
110 -10 110 -5 0 -10 9 -10 20 0 11 -4 20 -10 20 -5 0 -10 9 -10 20 0 11 -4
20 -10 20 -5 0 -10 5 -10 11 0 8 -87 98 -133 136 -29 23 -113 61 -166 73 -54
13 -116 9 -183 -10 -37 -11 -118 -79 -118 -99 0 -6 -4 -11 -10 -11 -5 0 -10
-11 -10 -25 0 -14 -4 -25 -10 -25 -6 0 -10 -35 -10 -85 0 -50 4 -85 10 -85 6
0 10 -13 10 -30 0 -16 5 -30 10 -30 6 0 10 -11 10 -25 0 -14 5 -25 10 -25 6 0
10 -7 10 -15 0 -8 5 -15 10 -15 6 0 10 -7 10 -15 0 -8 5 -15 10 -15 6 0 10 -7
10 -15 0 -8 5 -15 10 -15 6 0 10 -5 10 -10 0 -21 70 -80 131 -111 83 -41 161
-49 247 -23 34 10 62 22 62 26 0 4 9 8 20 8 11 0 20 -7 20 -15 0 -8 5 -15 10
-15 6 0 10 -7 10 -15 0 -8 5 -15 10 -15 6 0 10 -9 10 -20 0 -11 5 -20 10 -20
6 0 10 -11 10 -25 0 -14 5 -25 10 -25 6 0 10 -9 10 -20 0 -11 5 -20 10 -20 6
0 10 -13 10 -30 0 -16 5 -30 10 -30 6 0 10 -11 10 -25 0 -14 5 -25 10 -25 6 0
10 -13 10 -30 0 -16 5 -30 10 -30 6 0 10 -16 10 -35 0 -19 5 -35 10 -35 6 0
10 -18 10 -40 0 -22 5 -40 10 -40 6 0 10 -63 10 -170 0 -107 -4 -170 -10 -170
-5 0 -10 6 -10 13 0 7 -9 19 -20 27 -11 8 -20 20 -20 27 0 7 -4 13 -10 13 -5
0 -10 14 -10 30 0 17 -4 30 -10 30 -5 0 -10 14 -10 30 0 17 -4 30 -10 30 -5 0
-10 11 -10 25 0 14 -4 25 -10 25 -5 0 -10 11 -10 25 0 14 -4 25 -10 25 -5 0
-10 9 -10 20 0 11 -4 20 -10 20 -5 0 -10 9 -10 20 0 11 -4 20 -10 20 -5 0 -10
7 -10 15 0 8 -4 15 -10 15 -5 0 -10 7 -10 15 0 8 -4 15 -10 15 -5 0 -10 7 -10
15 0 8 -4 15 -10 15 -5 0 -10 5 -10 11 0 5 -27 36 -60 67 -76 73 -84 80 -115
94 -14 6 -25 14 -25 18 0 17 -164 73 -261 89 -90 15 -216 14 -329 -4 -279 -43
-488 -159 -417 -230 8 -7 60 -37 117 -65 57 -28 109 -58 117 -65 7 -8 22 -17
33 -20 11 -3 20 -10 20 -14 0 -5 14 -14 30 -21 17 -7 30 -16 30 -20 0 -4 18
-15 40 -25 22 -10 40 -21 40 -25 0 -4 14 -13 31 -20 17 -7 36 -19 43 -26 24
-23 178 -95 266 -124 136 -45 233 -62 383 -67 110 -5 141 -9 157 -23 11 -10
20 -21 20 -26 0 -5 9 -16 20 -24 11 -8 20 -20 20 -27 0 -7 5 -13 10 -13 6 0
10 -7 10 -15 0 -8 5 -15 10 -15 6 0 10 -9 10 -20 0 -11 5 -20 10 -20 6 0 10
-7 10 -15 0 -8 5 -15 10 -15 6 0 10 -11 10 -25 0 -14 5 -25 10 -25 6 0 10 -55
10 -145 0 -90 -4 -145 -10 -145 -6 0 -10 -37 -10 -90 0 -53 -4 -90 -10 -90 -6
0 -10 -26 -10 -59 0 -33 -4 -61 -9 -63 -9 -3 -14 -40 -12 -85 1 -20 6 -23 45
-23 62 0 76 7 76 41 0 16 5 29 10 29 6 0 10 27 10 60 0 33 4 60 10 60 6 0 10
21 10 46 0 38 5 51 30 74 17 15 30 31 30 35 0 7 25 30 103 97 21 18 49 44 63
57 23 21 29 22 67 13 116 -29 261 -24 375 14 44 14 176 78 196 95 29 25 56 45
77 59 31 21 219 207 219 217 0 5 9 15 20 23 11 8 20 20 20 27 0 7 5 13 10 13
6 0 10 6 10 13 0 7 9 19 20 27 11 8 20 20 20 27 0 7 5 13 10 13 6 0 10 9 10
20 0 11 5 20 10 20 6 0 10 7 10 15 0 8 5 15 10 15 15 0 12 69 -4 85 -26 27
-142 38 -330 32 -176 -5 -223 -13 -344 -53 -54 -18 -161 -72 -179 -90 -8 -8
-18 -14 -23 -14 -13 0 -150 -137 -150 -150 0 -5 -4 -10 -10 -10 -5 0 -10 -7
-10 -15 0 -8 -4 -15 -10 -15 -5 0 -10 -9 -10 -20 0 -11 -4 -20 -10 -20 -5 0
-10 -9 -10 -20 0 -11 -4 -20 -10 -20 -5 0 -10 -11 -10 -25 0 -14 -4 -25 -10
-25 -5 0 -10 -13 -10 -30 0 -16 -4 -30 -10 -30 -5 0 -10 -20 -10 -45 0 -25 -4
-45 -10 -45 -5 0 -10 -6 -10 -12 0 -7 -14 -24 -31 -38 -17 -14 -41 -35 -54
-47 -13 -13 -27 -23 -30 -23 -3 0 -5 41 -5 90 0 53 4 90 10 90 6 0 10 68 10
185 0 117 4 185 10 185 6 0 10 11 10 25 0 14 5 25 10 25 6 0 10 9 10 20 0 11
5 20 10 20 6 0 10 7 10 15 0 8 5 15 10 15 6 0 10 7 10 15 0 8 5 15 10 15 6 0
10 7 10 15 0 8 5 15 10 15 6 0 10 6 10 13 0 7 9 19 20 27 11 8 20 20 20 27 0
19 30 16 49 -6 25 -29 111 -68 167 -76 57 -7 163 9 208 32 32 17 49 30 74 56
9 9 20 17 25 17 10 0 57 47 57 57 0 5 9 15 20 23 11 8 20 20 20 27 0 7 5 13
10 13 6 0 10 9 10 20 0 11 5 20 10 20 6 0 10 9 10 20 0 11 5 20 10 20 6 0 10
18 10 40 0 22 5 40 10 40 6 0 10 16 10 35 0 19 -4 35 -10 35 -5 0 -10 16 -10
35 0 19 -4 35 -10 35 -5 0 -10 7 -10 15 0 9 -15 31 -34 50 -100 100 -261 112
-420 33 -63 -32 -72 -38 -115 -80 -16 -16 -33 -28 -40 -28 -6 0 -11 -6 -11
-13 0 -7 -9 -19 -20 -27 -11 -8 -20 -22 -20 -32 0 -10 -4 -18 -10 -18 -5 0
-10 -9 -10 -20 0 -11 -4 -20 -10 -20 -6 0 -10 -36 -10 -88 0 -76 -3 -89 -20
-102 -11 -8 -20 -18 -20 -23 0 -5 -13 -22 -30 -37 -16 -15 -30 -33 -30 -39 0
-6 -4 -11 -10 -11 -5 0 -10 -7 -10 -15 0 -8 -4 -15 -10 -15 -6 0 -10 42 -10
105 0 63 -4 105 -10 105 -6 0 -10 55 -10 145 0 90 -4 145 -10 145 -5 0 -10 20
-10 45 0 33 4 45 15 45 7 0 18 -6 22 -14 4 -7 27 -23 50 -35 70 -35 243 -24
296 19 43 36 77 69 77 77 0 5 9 15 20 23 11 8 20 22 20 32 0 10 5 18 10 18 6
0 10 9 10 20 0 11 5 20 10 20 6 0 10 9 10 20 0 11 5 20 10 20 6 0 10 20 10 45
0 25 5 45 10 45 6 0 10 14 10 30 0 17 -4 30 -10 30 -5 0 -10 18 -10 40 0 22
-4 40 -10 40 -5 0 -10 9 -10 20 0 11 -4 20 -10 20 -5 0 -10 7 -10 15 0 8 -4
15 -9 15 -5 0 -16 6 -23 14 -25 25 -79 47 -127 53 -84 10 -212 -32 -256 -83
-11 -13 -24 -24 -29 -24 -10 0 -36 -26 -36 -37 0 -5 -9 -15 -20 -23 -11 -8
-20 -20 -20 -27 0 -7 -4 -13 -10 -13 -5 0 -10 9 -10 20 0 11 -4 20 -10 20 -6
0 -10 33 -10 79 l0 78 64 7 c36 3 91 15 124 25 62 20 197 85 217 104 7 7 23
19 35 27 32 21 140 127 140 137 0 5 9 15 20 23 11 8 20 20 20 27 0 7 5 13 10
13 6 0 10 7 10 15 0 8 5 15 10 15 6 0 10 7 10 15 0 8 5 15 10 15 6 0 10 9 10
20 0 11 5 20 10 20 6 0 10 9 10 20 0 11 5 20 10 20 6 0 10 9 10 20 0 11 5 20
10 20 6 0 10 14 10 30 0 17 5 30 10 30 6 0 10 14 10 30 0 17 5 30 10 30 6 0
10 16 10 35 0 19 5 35 10 35 6 0 10 20 10 45 0 25 5 45 10 45 6 0 10 45 10
114 0 153 4 152 -230 72z m110 -116 c0 -11 -4 -20 -10 -20 -5 0 -10 -25 -10
-55 0 -30 -4 -55 -10 -55 -5 0 -10 -16 -10 -35 0 -19 -4 -35 -10 -35 -5 0 -10
-13 -10 -30 0 -16 -4 -30 -10 -30 -5 0 -10 -11 -10 -25 0 -14 -4 -25 -10 -25
-5 0 -10 -11 -10 -25 0 -14 -4 -25 -10 -25 -5 0 -10 -7 -10 -15 0 -8 -4 -15
-10 -15 -5 0 -10 -9 -10 -20 0 -11 -4 -20 -10 -20 -5 0 -10 -7 -10 -15 0 -8
-4 -15 -10 -15 -5 0 -10 -7 -10 -15 0 -8 -4 -15 -10 -15 -5 0 -10 -6 -10 -13
0 -7 -9 -19 -20 -27 -11 -8 -20 -18 -20 -23 0 -9 -32 -40 -90 -87 -17 -14 -37
-30 -44 -36 -17 -16 -134 -75 -171 -86 -16 -5 -55 -15 -85 -22 -30 -7 -63 -16
-72 -21 -16 -6 -18 1 -18 84 0 54 4 91 10 91 6 0 10 27 10 60 0 33 4 60 10 60
6 0 10 16 10 35 0 19 5 35 10 35 6 0 10 11 10 25 0 14 5 25 10 25 6 0 10 9 10
20 0 11 5 20 10 20 6 0 10 7 10 15 0 8 5 15 10 15 6 0 10 6 10 13 0 7 9 19 20
27 11 8 20 18 20 23 0 8 26 34 73 73 8 7 29 20 47 29 19 10 40 24 48 31 7 8
20 14 28 14 8 0 34 10 57 21 23 12 53 25 67 30 14 4 70 24 125 43 55 19 103
35 108 36 4 0 7 -9 7 -20z m-1367 -117 c54 -19 158 -72 174 -89 8 -8 18 -14
22 -14 4 0 17 -8 29 -17 11 -10 30 -25 42 -33 36 -24 120 -108 120 -119 0 -6
5 -11 10 -11 6 0 10 -7 10 -15 0 -8 5 -15 10 -15 6 0 10 -7 10 -15 0 -8 5 -15
10 -15 6 0 10 -9 10 -20 0 -11 5 -20 10 -20 6 0 10 -9 10 -20 0 -11 5 -20 10
-20 6 0 10 -13 10 -30 0 -16 5 -30 10 -30 6 0 10 -22 10 -50 0 -27 5 -50 10
-50 6 0 10 -25 10 -56 0 -48 -2 -55 -17 -50 -10 3 -31 8 -48 12 -40 9 -181 80
-208 105 -75 67 -127 119 -127 126 0 5 -9 15 -20 23 -11 8 -20 20 -20 27 0 7
-4 13 -10 13 -5 0 -10 7 -10 15 0 8 -4 15 -10 15 -5 0 -10 7 -10 15 0 8 -4 15
-10 15 -5 0 -10 9 -10 20 0 11 -4 20 -10 20 -5 0 -10 9 -10 20 0 11 -4 20 -10
20 -5 0 -10 11 -10 25 0 14 -4 25 -10 25 -5 0 -10 14 -10 30 0 17 -4 30 -10
30 -6 0 -10 30 -10 70 0 40 -4 70 -10 70 -5 0 -10 5 -10 11 0 7 7 8 18 4 9 -4
34 -14 55 -22z m169 -846 c4 -6 8 -9 8 -4 0 8 54 -17 77 -37 47 -39 93 -86 93
-95 0 -6 5 -11 10 -11 6 0 10 -7 10 -15 0 -8 5 -15 10 -15 6 0 10 -11 10 -25
0 -14 5 -25 10 -25 6 0 10 -30 10 -70 0 -40 -4 -70 -10 -70 -5 0 -10 -7 -10
-15 0 -37 -103 -105 -160 -105 -17 0 -49 9 -71 21 -43 21 -129 101 -129 119 0
5 -5 10 -11 10 -6 0 -8 7 -5 15 3 9 -1 18 -9 21 -8 4 -15 15 -15 25 0 10 -4
19 -10 19 -5 0 -10 14 -10 30 0 17 -4 30 -10 30 -5 0 -10 23 -10 50 0 28 5 50
10 50 6 0 10 11 10 25 0 14 5 25 10 25 6 0 10 6 10 14 0 8 9 18 20 21 11 3 20
10 20 15 0 22 127 20 142 -3z m911 -29 c28 -15 47 -34 47 -47 0 -6 5 -11 10
-11 6 0 10 -33 10 -80 0 -47 -4 -80 -10 -80 -5 0 -10 -11 -10 -25 0 -14 -4
-25 -10 -25 -5 0 -10 -9 -10 -20 0 -11 -4 -20 -10 -20 -5 0 -10 -7 -10 -15 0
-8 -4 -15 -9 -15 -5 0 -11 -9 -14 -20 -3 -11 -12 -20 -21 -20 -9 0 -16 -4 -16
-8 0 -5 -22 -19 -48 -31 -42 -20 -54 -21 -89 -12 -45 12 -103 60 -103 85 0 9
-4 16 -10 16 -5 0 -10 25 -10 55 0 30 5 55 10 55 6 0 10 11 10 25 0 14 5 25
10 25 6 0 10 7 10 15 0 8 5 15 10 15 6 0 10 5 10 11 0 9 42 53 96 98 21 18 82
40 112 41 13 0 33 -5 45 -12z m330 -544 c36 -19 57 -38 57 -53 0 -6 5 -11 10
-11 6 0 10 -33 10 -80 0 -47 -4 -80 -10 -80 -5 0 -10 -9 -10 -20 0 -11 -4 -20
-10 -20 -5 0 -10 -7 -10 -15 0 -8 -4 -15 -10 -15 -5 0 -10 -5 -10 -11 0 -9
-66 -76 -114 -116 -21 -18 -96 -43 -129 -43 -46 0 -137 53 -137 79 0 6 -4 11
-10 11 -5 0 -10 9 -10 20 0 11 -4 20 -10 20 -6 0 -10 28 -10 65 0 37 4 65 10
65 6 0 10 9 10 20 0 11 5 20 10 20 6 0 10 5 10 11 0 15 76 86 100 94 11 4 20
10 20 14 0 7 71 42 110 55 33 10 103 5 133 -10z m-1457 -182 c70 -23 141 -58
162 -78 7 -8 17 -14 22 -14 13 0 130 -117 130 -129 0 -6 5 -11 10 -11 6 0 10
-7 10 -15 0 -8 5 -15 10 -15 6 0 10 -7 10 -15 0 -8 5 -15 10 -15 6 0 10 -9 10
-20 0 -11 5 -20 10 -20 6 0 10 -9 10 -20 0 -11 5 -20 10 -20 6 0 10 -9 10 -20
0 -11 5 -20 10 -20 6 0 10 -13 10 -30 0 -16 5 -30 10 -30 6 0 10 -10 10 -23 0
-22 -3 -23 -72 -19 -142 6 -302 39 -408 85 -115 49 -140 61 -140 67 0 4 -22
17 -50 30 -27 13 -50 26 -50 30 0 4 -18 15 -40 25 -22 10 -40 21 -40 25 0 4
-13 13 -30 20 -16 7 -30 16 -30 20 0 4 -13 13 -30 20 -16 7 -30 16 -30 20 0 4
-18 15 -40 25 -22 10 -40 21 -40 25 0 4 -18 15 -41 25 l-41 19 46 23 c117 59
239 83 401 79 86 -3 137 -10 181 -24z m1909 -442 c28 -4 44 -8 38 -9 -7 0 -13
-10 -13 -21 0 -11 -4 -20 -10 -20 -5 0 -10 -6 -10 -13 0 -7 -9 -19 -20 -27
-11 -8 -20 -19 -20 -25 0 -6 -9 -17 -20 -25 -11 -8 -20 -19 -20 -25 0 -6 -9
-17 -20 -25 -11 -8 -20 -18 -20 -23 0 -8 -98 -106 -147 -145 -15 -12 -39 -31
-52 -42 -13 -11 -28 -20 -32 -20 -4 0 -14 -6 -22 -14 -26 -26 -132 -73 -205
-91 -77 -18 -151 -17 -224 5 -37 11 -38 12 -38 60 0 28 5 50 10 50 6 0 10 11
10 25 0 14 5 25 10 25 6 0 10 7 10 15 0 8 5 15 10 15 6 0 10 9 10 20 0 11 5
20 10 20 6 0 10 6 10 13 0 7 9 19 20 27 11 8 20 19 20 25 0 6 9 17 21 25 12 8
34 27 51 42 16 15 38 30 49 33 10 4 19 10 19 14 0 7 48 30 135 65 113 45 315
66 440 46z"/>
<path d="M6163 3885 c-15 -17 -17 -95 -3 -95 6 0 10 -6 10 -13 0 -7 9 -19 20
-27 11 -8 20 -19 20 -25 0 -6 9 -17 20 -25 11 -8 20 -18 20 -23 0 -5 14 -22
30 -37 17 -15 30 -32 30 -37 0 -5 9 -15 20 -23 11 -8 20 -19 20 -25 0 -6 9
-17 20 -25 11 -8 20 -19 20 -25 0 -6 9 -17 20 -25 11 -8 20 -19 20 -25 0 -6 9
-17 20 -25 11 -8 20 -18 20 -23 0 -5 14 -22 30 -37 17 -15 30 -32 30 -37 0 -5
9 -15 20 -23 11 -8 20 -18 20 -23 0 -4 11 -19 25 -32 24 -25 65 -32 99 -19 18
7 23 64 6 64 -5 0 -10 7 -10 15 0 8 -4 15 -10 15 -5 0 -10 6 -10 13 0 7 -9 19
-20 27 -11 8 -20 20 -20 27 0 7 -4 13 -10 13 -5 0 -10 7 -10 15 0 8 -4 15 -10
15 -5 0 -10 7 -10 15 0 8 -4 15 -10 15 -5 0 -10 6 -10 13 0 7 -9 19 -20 27
-11 8 -20 20 -20 27 0 7 -4 13 -10 13 -5 0 -10 7 -10 15 0 8 -4 15 -10 15 -5
0 -10 7 -10 15 0 8 -4 15 -10 15 -5 0 -10 6 -10 13 0 7 -9 19 -20 27 -11 8
-20 20 -20 27 0 7 -4 13 -10 13 -5 0 -10 7 -10 15 0 8 -4 15 -10 15 -5 0 -10
7 -10 15 0 8 -4 15 -10 15 -5 0 -10 7 -10 15 0 8 -4 15 -10 15 -5 0 -10 6 -10
13 0 7 -9 19 -20 27 -11 8 -20 20 -20 27 0 7 -4 13 -10 13 -5 0 -10 6 -10 14
0 8 -7 17 -16 20 -29 11 -99 5 -111 -9z"/>
<path d="M8235 3888 c-27 -16 -45 -34 -45 -47 0 -6 -4 -11 -10 -11 -5 0 -10
-6 -10 -13 0 -7 -9 -19 -20 -27 -11 -8 -20 -20 -20 -27 0 -7 -4 -13 -10 -13
-5 0 -10 -6 -10 -13 0 -7 -9 -19 -20 -27 -11 -8 -20 -20 -20 -27 0 -7 -4 -13
-10 -13 -5 0 -10 -6 -10 -13 0 -7 -9 -19 -20 -27 -11 -8 -20 -20 -20 -27 0 -7
-4 -13 -10 -13 -5 0 -10 -6 -10 -13 0 -7 -9 -19 -20 -27 -11 -8 -20 -20 -20
-27 0 -7 -4 -13 -10 -13 -5 0 -10 -6 -10 -13 0 -7 -9 -19 -20 -27 -11 -8 -20
-20 -20 -27 0 -7 -4 -13 -10 -13 -5 0 -10 -6 -10 -13 0 -7 -9 -19 -20 -27 -11
-8 -20 -20 -20 -27 0 -7 -4 -13 -10 -13 -5 0 -10 -7 -10 -15 0 -8 -4 -15 -10
-15 -5 0 -10 -7 -10 -15 0 -8 -4 -15 -10 -15 -15 0 -12 -29 4 -46 23 -22 106
-16 106 8 0 6 14 23 30 38 17 15 30 31 30 35 0 4 14 20 30 35 17 15 30 31 30
35 0 4 14 20 30 35 17 15 30 31 30 35 0 4 14 20 30 35 17 15 30 31 30 34 0 3
14 19 30 34 17 16 30 32 30 37 0 4 14 20 30 35 17 15 30 32 30 37 0 5 9 15 20
23 11 8 20 18 20 23 0 5 14 22 30 37 25 23 30 36 30 72 0 38 -4 46 -25 56 -32
15 -64 15 -90 0z"/>
<path d="M12260 3369 c-41 -5 -100 -16 -130 -26 -56 -17 -191 -80 -200 -93 -3
-4 -16 -13 -29 -20 -29 -15 -43 -26 -80 -62 -16 -16 -31 -28 -35 -28 -9 0 -96
-88 -96 -98 0 -4 -9 -14 -20 -22 -11 -8 -20 -19 -20 -25 0 -6 -9 -17 -20 -25
-11 -8 -20 -20 -20 -27 0 -7 -4 -13 -10 -13 -5 0 -10 -7 -10 -15 0 -8 -4 -15
-10 -15 -5 0 -10 -7 -10 -15 0 -8 -4 -15 -10 -15 -5 0 -10 -7 -10 -15 0 -8 -4
-15 -10 -15 -5 0 -10 -9 -10 -20 0 -11 -4 -20 -10 -20 -5 0 -10 -9 -10 -20 0
-11 -4 -20 -10 -20 -5 0 -10 -9 -10 -20 0 -11 -4 -20 -10 -20 -5 0 -10 -9 -10
-20 0 -11 -4 -20 -10 -20 -5 0 -10 -11 -10 -25 0 -14 -4 -25 -10 -25 -5 0 -10
-11 -10 -25 0 -14 -4 -25 -10 -25 -5 0 -10 -13 -10 -30 0 -16 -4 -30 -10 -30
-5 0 -10 -16 -10 -35 0 -19 -4 -35 -10 -35 -5 0 -10 -20 -10 -45 0 -25 -4 -45
-10 -45 -6 0 -10 -32 -10 -75 0 -43 -4 -75 -10 -75 -6 0 -10 -37 -10 -90 0
-53 4 -90 10 -90 6 0 10 -30 10 -70 0 -40 4 -70 10 -70 6 0 10 -16 10 -35 0
-19 5 -35 10 -35 6 0 10 -13 10 -30 0 -16 5 -30 10 -30 6 0 10 -9 10 -20 0
-11 5 -20 10 -20 6 0 10 -9 10 -20 0 -11 5 -20 10 -20 6 0 10 -9 10 -20 0 -11
5 -20 10 -20 6 0 10 -7 10 -15 0 -8 5 -15 10 -15 6 0 10 -5 10 -10 0 -12 125
-137 160 -160 12 -8 28 -20 34 -26 21 -20 115 -65 177 -84 206 -66 388 -67
577 -4 48 16 104 43 112 54 3 4 16 13 29 20 33 17 39 22 131 112 44 42 80 81
80 85 0 5 9 15 20 23 11 8 20 20 20 27 0 7 5 13 10 13 6 0 10 7 10 15 0 8 5
15 10 15 6 0 10 9 10 20 0 11 5 20 10 20 6 0 10 7 10 15 0 8 5 15 10 15 6 0
10 9 10 20 0 11 3 20 6 20 13 0 34 -30 34 -49 0 -12 5 -21 10 -21 6 0 10 -11
10 -25 0 -14 5 -25 10 -25 6 0 10 -9 10 -20 0 -11 5 -20 10 -20 6 0 10 -9 10
-20 0 -11 5 -20 10 -20 6 0 10 -7 10 -15 0 -8 5 -15 10 -15 6 0 10 -7 10 -15
0 -8 5 -15 10 -15 6 0 10 -6 10 -13 0 -7 9 -19 20 -27 11 -8 20 -20 20 -27 0
-7 6 -13 13 -13 6 0 31 -20 55 -45 50 -52 152 -107 233 -125 79 -18 248 -8
325 18 64 21 137 55 161 75 45 38 133 128 133 136 0 6 5 11 10 11 6 0 10 9 10
20 0 11 5 20 10 20 6 0 10 9 10 20 0 11 5 20 10 20 6 0 10 14 10 30 0 17 5 30
10 30 6 0 10 18 10 40 0 22 5 40 10 40 6 0 10 50 10 130 0 80 -4 130 -10 130
-5 0 -10 20 -10 45 0 25 -4 45 -10 45 -5 0 -10 16 -10 35 0 19 -4 35 -10 35
-5 0 -10 14 -10 30 0 17 -4 30 -10 30 -5 0 -10 9 -10 20 0 11 -4 20 -10 20 -5
0 -10 11 -10 25 0 14 -4 25 -10 25 -5 0 -10 7 -10 15 0 8 -4 15 -10 15 -5 0
-10 9 -10 20 0 11 -4 20 -10 20 -5 0 -10 7 -10 15 0 8 -4 15 -10 15 -5 0 -10
6 -10 13 0 7 -9 19 -20 27 -11 8 -20 19 -20 25 0 6 -9 17 -20 25 -11 8 -20 20
-20 27 0 7 -6 13 -13 13 -7 0 -29 17 -49 38 -43 44 -57 55 -88 72 -14 7 -30
19 -37 26 -7 7 -45 23 -85 36 -62 19 -93 23 -203 23 l-130 -1 -75 -38 c-41
-21 -82 -47 -91 -57 -23 -27 -29 -24 -29 16 0 19 -4 35 -10 35 -5 0 -10 20
-10 45 0 25 -4 45 -10 45 -5 0 -10 16 -10 35 0 19 -4 35 -10 35 -5 0 -10 14
-10 30 0 17 -4 30 -10 30 -5 0 -10 9 -10 20 0 11 -4 20 -10 20 -5 0 -10 9 -10
20 0 11 -4 20 -10 20 -5 0 -10 9 -10 20 0 11 -4 20 -10 20 -5 0 -10 7 -10 15
0 8 -4 15 -10 15 -5 0 -10 7 -10 15 0 8 -4 15 -10 15 -5 0 -10 5 -10 10 0 13
-137 150 -150 150 -5 0 -15 6 -22 14 -69 69 -288 114 -458 95z m289 -193 c40
-21 80 -43 88 -49 47 -40 93 -87 93 -96 0 -6 5 -11 10 -11 6 0 10 -7 10 -15 0
-8 5 -15 10 -15 6 0 10 -7 10 -15 0 -8 5 -15 10 -15 6 0 10 -7 10 -15 0 -8 5
-15 10 -15 6 0 10 -9 10 -20 0 -11 5 -20 10 -20 6 0 10 -11 10 -25 0 -14 5
-25 10 -25 6 0 10 -16 10 -35 0 -19 5 -35 10 -35 6 0 10 -18 10 -40 0 -22 5
-40 10 -40 6 0 10 -80 10 -220 0 -140 -4 -220 -10 -220 -5 0 -10 -22 -10 -50
0 -27 -4 -50 -10 -50 -5 0 -10 -16 -10 -35 0 -19 -4 -35 -10 -35 -5 0 -10 -13
-10 -30 0 -16 -4 -30 -10 -30 -5 0 -10 -13 -10 -30 0 -16 -4 -30 -10 -30 -5 0
-10 -9 -10 -20 0 -11 -4 -20 -10 -20 -5 0 -10 -11 -10 -25 0 -14 -4 -25 -10
-25 -5 0 -10 -7 -10 -15 0 -8 -4 -15 -10 -15 -5 0 -10 -9 -10 -20 0 -11 -4
-20 -10 -20 -5 0 -10 -7 -10 -15 0 -8 -4 -15 -10 -15 -5 0 -10 -7 -10 -15 0
-8 -4 -15 -10 -15 -5 0 -10 -6 -10 -13 0 -7 -9 -19 -20 -27 -11 -8 -20 -18
-20 -23 0 -10 -88 -96 -120 -117 -12 -8 -28 -20 -34 -26 -20 -19 -128 -71
-163 -78 -41 -9 -146 10 -196 36 -43 22 -87 61 -87 78 0 5 -4 10 -10 10 -5 0
-10 11 -10 25 0 14 -4 25 -10 25 -6 0 -10 33 -10 80 0 47 4 80 10 80 6 0 10
14 10 30 0 17 5 30 10 30 6 0 10 9 10 20 0 11 5 20 10 20 6 0 10 9 10 20 0 11
5 20 10 20 6 0 10 6 10 13 0 7 9 19 20 27 11 8 20 19 21 25 0 5 22 30 50 55
92 83 269 259 269 267 0 5 9 15 20 23 11 8 20 19 20 25 0 6 9 17 20 25 11 8
20 22 20 32 0 10 5 18 10 18 6 0 10 5 10 11 0 6 7 17 15 26 8 8 13 19 10 24
-4 5 -1 9 4 9 6 0 11 11 11 25 0 14 5 25 10 25 6 0 10 16 10 35 0 19 5 35 10
35 6 0 10 42 10 105 0 63 -4 105 -10 105 -5 0 -10 18 -10 40 0 22 -4 40 -10
40 -5 0 -10 11 -10 25 0 14 -4 25 -10 25 -5 0 -10 11 -10 25 0 14 -4 25 -10
25 -5 0 -10 9 -10 20 0 11 -4 20 -10 20 -5 0 -10 7 -10 15 0 8 -4 15 -10 15
-5 0 -10 7 -10 15 0 10 -10 15 -30 15 -25 0 -30 -4 -30 -25 0 -14 5 -25 10
-25 6 0 10 -11 10 -25 0 -14 5 -25 10 -25 6 0 10 -16 10 -35 0 -19 5 -35 10
-35 6 0 10 -43 10 -110 0 -67 -4 -110 -10 -110 -5 0 -10 -16 -10 -35 0 -19 -4
-35 -10 -35 -5 0 -10 -9 -10 -20 0 -11 -4 -20 -10 -20 -5 0 -10 -9 -10 -20 0
-11 -4 -20 -10 -20 -5 0 -10 -7 -10 -15 0 -8 -4 -15 -10 -15 -5 0 -10 -6 -10
-13 0 -7 -9 -19 -20 -27 -11 -8 -20 -18 -20 -23 0 -9 -181 -188 -230 -227 -29
-24 -48 -40 -160 -140 -25 -22 -60 -53 -77 -69 -18 -16 -33 -33 -33 -38 0 -5
-9 -15 -20 -23 -11 -8 -20 -20 -20 -27 0 -7 -4 -13 -10 -13 -5 0 -10 -7 -10
-15 0 -8 -4 -15 -10 -15 -5 0 -10 -9 -10 -20 0 -11 -4 -20 -10 -20 -5 0 -10
-11 -10 -25 0 -14 -4 -25 -10 -25 -6 0 -10 -43 -10 -110 0 -67 -4 -110 -10
-110 -5 0 -10 6 -10 13 0 7 -9 19 -20 27 -11 8 -20 20 -20 27 0 7 -4 13 -10
13 -5 0 -10 7 -10 15 0 8 -4 15 -10 15 -5 0 -10 7 -10 15 0 8 -4 15 -10 15 -5
0 -10 9 -10 20 0 11 -4 20 -10 20 -5 0 -10 9 -10 20 0 11 -4 20 -10 20 -5 0
-10 11 -10 25 0 14 -4 25 -10 25 -5 0 -10 14 -10 30 0 17 -4 30 -10 30 -5 0
-10 23 -10 50 0 28 -4 50 -10 50 -6 0 -10 33 -10 80 0 47 4 80 10 80 6 0 10
30 10 70 0 40 4 70 10 70 6 0 10 20 10 45 0 25 5 45 10 45 6 0 10 14 10 30 0
17 5 30 10 30 6 0 10 14 10 30 0 17 5 30 10 30 6 0 10 11 10 25 0 14 5 25 10
25 6 0 10 9 10 20 0 11 5 20 10 20 6 0 10 11 10 25 0 14 5 25 10 25 6 0 10 7
10 15 0 8 5 15 10 15 6 0 10 9 10 20 0 11 5 20 10 20 6 0 10 7 10 15 0 8 5 15
10 15 6 0 10 7 10 15 0 8 5 15 10 15 6 0 10 7 10 15 0 8 5 15 10 15 6 0 10 6
10 13 0 7 9 19 20 27 11 8 20 19 20 24 0 5 8 16 18 25 9 9 22 25 28 35 6 11
19 24 29 30 10 6 33 25 51 41 49 45 58 51 95 70 19 10 36 21 39 25 9 13 63 36
125 54 33 10 65 19 70 22 6 2 55 2 110 1 93 -3 105 -6 174 -41z m1010 -615
c35 -18 70 -38 78 -44 46 -38 133 -128 133 -136 0 -6 5 -11 10 -11 6 0 10 -7
10 -15 0 -8 5 -15 10 -15 6 0 10 -7 10 -15 0 -8 5 -15 10 -15 6 0 10 -7 10
-15 0 -8 5 -15 10 -15 6 0 10 -9 10 -20 0 -11 5 -20 10 -20 6 0 10 -11 10 -25
0 -14 5 -25 10 -25 6 0 10 -11 10 -25 0 -14 5 -25 10 -25 6 0 10 -13 10 -30 0
-16 5 -30 10 -30 6 0 10 -20 10 -45 0 -25 5 -45 10 -45 6 0 10 -43 10 -110 0
-67 -4 -110 -10 -110 -5 0 -10 -16 -10 -35 0 -19 -4 -35 -10 -35 -5 0 -10 -9
-10 -20 0 -41 -83 -100 -140 -100 -50 0 -140 58 -140 90 0 5 -4 10 -10 10 -5
0 -10 9 -10 20 0 11 -4 20 -10 20 -5 0 -10 18 -10 40 0 22 -4 40 -10 40 -6 0
-10 75 -10 205 0 130 -4 205 -10 205 -5 0 -10 11 -10 25 0 14 -4 25 -10 25 -5
0 -10 8 -10 18 0 10 -9 24 -20 32 -11 8 -20 19 -20 25 0 6 -9 17 -21 25 -11 8
-30 23 -41 33 -24 20 -78 23 -78 4 0 -7 9 -19 20 -27 11 -8 20 -22 20 -32 0
-10 5 -18 10 -18 6 0 10 -13 10 -30 0 -16 5 -30 10 -30 6 0 10 -32 10 -75 0
-43 -4 -75 -10 -75 -5 0 -10 -25 -10 -55 0 -30 -4 -55 -10 -55 -5 0 -10 -25
-10 -55 0 -30 -4 -55 -10 -55 -6 0 -10 -33 -10 -80 0 -47 4 -80 10 -80 6 0 10
-16 10 -35 0 -19 5 -35 10 -35 6 0 10 -9 10 -20 0 -11 5 -20 10 -20 6 0 10 -9
10 -20 0 -11 5 -20 10 -20 6 0 10 -5 10 -11 0 -5 27 -37 60 -69 33 -32 60 -62
60 -66 0 -9 -93 2 -141 16 -20 5 -46 19 -59 30 -13 11 -27 20 -31 20 -12 0
-109 97 -109 109 0 6 -4 11 -10 11 -5 0 -10 7 -10 15 0 8 -4 15 -10 15 -5 0
-10 7 -10 15 0 8 -4 15 -10 15 -5 0 -10 7 -10 15 0 8 -4 15 -10 15 -5 0 -10
11 -10 25 0 14 -4 25 -10 25 -5 0 -10 11 -10 25 0 14 -4 25 -10 25 -5 0 -10
14 -10 30 0 17 -4 30 -10 30 -5 0 -10 20 -10 45 0 25 -4 45 -10 45 -6 0 -10
57 -10 150 0 93 4 150 10 150 6 0 10 18 10 40 0 22 5 40 10 40 6 0 10 11 10
25 0 14 5 25 10 25 6 0 10 9 10 20 0 11 5 20 10 20 6 0 10 7 10 15 0 8 5 15
10 15 6 0 10 5 10 11 0 10 24 34 73 75 47 40 100 54 182 50 55 -2 84 -10 134
-35z"/>
<path d="M7069 3036 c-2 -2 -47 -6 -99 -10 -138 -8 -333 -47 -468 -92 -112
-37 -232 -119 -232 -159 0 -8 -4 -15 -10 -15 -6 0 -10 -63 -10 -170 0 -107 4
-170 10 -170 6 0 10 -42 10 -105 0 -63 4 -105 10 -105 6 0 10 -30 10 -70 0
-40 4 -70 10 -70 6 0 10 -25 10 -55 0 -30 5 -55 10 -55 6 0 10 -22 10 -50 0
-27 5 -50 10 -50 6 0 10 -13 10 -30 0 -31 8 -27 -120 -60 -124 -32 -336 -121
-386 -163 -49 -40 -94 -87 -94 -96 0 -6 -4 -11 -10 -11 -5 0 -10 -13 -10 -30
0 -16 -4 -30 -10 -30 -5 0 -10 -16 -10 -35 0 -19 5 -35 10 -35 6 0 10 -11 10
-25 0 -14 5 -25 10 -25 6 0 10 -7 10 -16 0 -13 39 -55 94 -101 27 -23 197
-103 268 -127 518 -173 1430 -201 2093 -65 55 12 118 27 140 34 22 7 67 21
100 31 96 28 274 121 315 164 21 22 40 36 44 33 3 -4 6 3 6 15 0 12 5 22 10
22 6 0 10 14 10 30 0 17 5 30 10 30 6 0 10 16 10 35 0 19 -4 35 -10 35 -5 0
-10 11 -10 25 0 14 -4 25 -10 25 -5 0 -10 7 -10 16 0 13 -39 55 -94 101 -27
23 -197 103 -268 127 -91 31 -230 66 -257 66 -12 0 -21 6 -21 15 0 8 5 15 10
15 6 0 10 18 10 40 0 22 5 40 10 40 6 0 10 20 10 45 0 25 5 45 10 45 6 0 10
25 10 55 0 30 5 55 10 55 6 0 10 28 10 65 0 37 4 65 10 65 6 0 10 27 10 60 0
33 4 60 10 60 6 0 10 23 10 50 0 28 5 50 10 50 6 0 10 18 10 40 0 22 5 40 10
40 6 0 10 14 10 30 0 17 5 30 10 30 6 0 10 9 10 20 0 11 5 20 10 20 6 0 10 7
10 15 0 8 5 15 10 15 6 0 10 7 10 15 0 8 4 15 10 15 5 0 20 11 33 24 48 48
171 96 247 96 19 0 52 -5 72 -10 37 -11 98 -59 98 -79 0 -6 5 -11 10 -11 6 0
10 -11 10 -25 0 -14 5 -25 10 -25 6 0 10 -13 10 -30 0 -16 -4 -30 -10 -30 -5
0 -10 -11 -10 -25 0 -14 -4 -25 -10 -25 -5 0 -10 -7 -10 -15 0 -9 -8 -19 -17
-22 -10 -4 -28 -17 -41 -30 -13 -13 -27 -23 -32 -23 -5 0 -15 -7 -24 -15 -8
-9 -43 -29 -78 -45 -35 -17 -58 -30 -53 -30 6 -1 -8 -10 -29 -21 -46 -25 -50
-28 -126 -101 -33 -31 -60 -64 -60 -72 0 -9 -4 -16 -10 -16 -5 0 -10 -9 -10
-20 0 -11 -4 -20 -10 -20 -5 0 -10 -13 -10 -30 0 -42 22 -39 75 13 60 57 66
62 116 87 24 13 46 26 49 30 3 4 65 38 139 75 74 37 141 73 148 81 8 8 18 14
23 14 16 0 110 98 110 114 0 9 5 16 10 16 6 0 10 16 10 35 0 19 5 35 10 35 6
0 10 16 10 35 0 19 -4 35 -10 35 -5 0 -10 18 -10 40 0 22 -4 40 -10 40 -5 0
-10 9 -10 20 0 11 -4 20 -10 20 -5 0 -10 5 -10 10 0 13 -80 94 -107 108 -87
47 -253 57 -360 23 -62 -20 -154 -63 -180 -84 -47 -40 -93 -87 -93 -96 0 -6
-4 -11 -10 -11 -5 0 -10 -7 -10 -15 0 -8 -4 -15 -10 -15 -5 0 -10 -9 -10 -20
0 -11 -4 -20 -10 -20 -5 0 -10 -11 -10 -25 0 -14 -4 -25 -10 -25 -5 0 -10 -13
-10 -30 0 -16 -4 -30 -10 -30 -5 0 -10 -18 -10 -40 0 -22 -4 -40 -10 -40 -5 0
-10 -25 -10 -55 0 -30 -4 -55 -10 -55 -6 0 -10 -27 -10 -60 0 -33 -4 -60 -10
-60 -6 0 -10 -28 -10 -65 0 -37 -4 -65 -10 -65 -5 0 -10 -25 -10 -55 0 -30 -4
-55 -10 -55 -5 0 -10 -20 -10 -45 0 -25 -4 -45 -10 -45 -5 0 -10 -16 -10 -35
0 -19 -4 -35 -10 -35 -5 0 -10 -9 -10 -20 0 -11 -4 -20 -10 -20 -5 0 -10 -9
-10 -20 0 -11 -4 -20 -10 -20 -5 0 -10 -9 -10 -20 0 -11 -4 -20 -10 -20 -5 0
-10 -7 -10 -15 0 -8 -4 -15 -10 -15 -5 0 -10 -7 -10 -15 0 -8 -4 -15 -10 -15
-5 0 -10 -5 -10 -11 0 -11 -64 -75 -100 -99 -12 -8 -28 -20 -35 -27 -20 -19
-155 -84 -217 -104 -198 -63 -435 -65 -613 -5 -52 18 -183 83 -200 99 -7 7
-23 19 -35 27 -36 24 -100 88 -100 99 0 6 -4 11 -10 11 -5 0 -10 7 -10 15 0 8
-4 15 -10 15 -5 0 -10 7 -10 15 0 8 -4 15 -10 15 -5 0 -10 11 -10 25 0 14 -4
25 -10 25 -5 0 -10 9 -10 20 0 11 -4 20 -10 20 -5 0 -10 14 -10 30 0 17 -4 30
-10 30 -5 0 -10 23 -10 50 0 28 -4 50 -10 50 -6 0 -10 27 -10 60 0 33 -4 60
-10 60 -6 0 -10 30 -10 70 0 40 -4 70 -10 70 -6 0 -10 38 -10 95 0 57 -4 95
-10 95 -16 0 -13 298 3 315 21 21 110 63 191 90 229 77 622 104 901 63 39 -5
77 -10 85 -10 23 0 169 -37 227 -57 28 -10 62 -29 75 -42 l24 -24 -32 -32
c-86 -86 -299 -149 -634 -190 -103 -12 -225 -17 -417 -17 -150 -1 -273 -3
-273 -6 0 -6 46 -22 125 -46 210 -62 662 -59 963 5 138 30 260 78 300 117 7 8
17 14 22 14 12 0 70 57 70 69 0 6 5 11 10 11 6 0 10 11 10 25 0 14 5 25 10 25
6 0 10 11 10 25 0 14 -4 25 -10 25 -5 0 -10 11 -10 25 0 14 -4 25 -10 25 -5 0
-10 5 -10 11 0 14 -36 46 -61 54 -11 4 -19 10 -19 15 0 5 -15 13 -32 19 -18 5
-58 19 -88 30 -126 48 -377 81 -616 81 -88 0 -163 -2 -165 -4z m1158 -1381
c113 -26 323 -104 348 -129 9 -9 20 -16 25 -16 15 0 70 -58 70 -74 0 -9 5 -16
10 -16 6 0 10 -7 10 -15 0 -8 -4 -15 -10 -15 -5 0 -10 -7 -10 -16 0 -16 -55
-74 -70 -74 -5 0 -16 -7 -25 -16 -35 -36 -286 -119 -461 -153 -605 -118 -1471
-89 -1914 64 -148 51 -198 72 -215 89 -9 9 -20 16 -25 16 -15 0 -70 58 -70 74
0 9 -4 16 -10 16 -5 0 -10 9 -10 20 0 11 5 20 10 20 6 0 10 5 10 11 0 10 24
34 73 75 37 31 144 73 312 123 114 33 123 34 140 18 8 -9 15 -20 15 -26 0 -6
5 -11 10 -11 6 0 10 -7 10 -15 0 -8 5 -15 10 -15 6 0 10 -5 10 -11 0 -11 105
-116 140 -139 12 -8 28 -20 35 -27 20 -19 176 -94 237 -114 102 -32 227 -49
368 -49 150 0 259 16 374 54 77 26 229 98 251 119 7 7 23 19 35 27 32 21 140
127 140 137 0 5 9 15 20 23 11 8 20 20 20 28 0 21 24 41 45 37 11 -2 52 -11
92 -20z"/>
</g>
</svg>
